<?xml version="1.0" standalone="no"?>
<!DOCTYPE svg PUBLIC "-//W3C//DTD SVG 20010904//EN"
 "http://www.w3.org/TR/2001/REC-SVG-20010904/DTD/svg10.dtd">
<svg version="1.0" xmlns="http://www.w3.org/2000/svg"
 width="576.000000pt" height="576.000000pt" viewBox="0 0 576.000000 576.000000"
 preserveAspectRatio="xMidYMid meet">
<metadata>
Created by potrace 1.14, written by Peter Selinger 2001-2017
</metadata>
<g transform="translate(0.000000,576.000000) scale(0.100000,-0.100000)"
fill="#000000" stroke="none">
<path d="M225 5103 c-85 -26 -155 -86 -197 -172 -32 -66 -31 -195 2 -266 19
-40 194 -221 887 -915 475 -475 863 -867 863 -870 0 -4 -388 -395 -863 -871
-690 -691 -868 -874 -887 -914 -17 -37 -24 -70 -26 -125 -1 -41 1 -79 4 -85 4
-5 7 -15 8 -21 5 -32 43 -93 83 -132 65 -65 118 -85 221 -86 149 -1 74 -67
1193 1053 564 565 1002 1011 1011 1031 26 53 29 68 30 155 0 64 -4 90 -23 130
-19 40 -218 244 -1020 1047 -1095 1097 -1041 1048 -1171 1054 -37 1 -87 -4
-115 -13z"/>
<path d="M2597 1284 c-1 -1 -30 -4 -64 -7 -34 -3 -81 -15 -105 -27 -52 -24
-128 -88 -128 -107 0 -7 -4 -13 -9 -13 -8 0 -26 -38 -39 -85 -4 -11 -6 -54 -6
-95 1 -57 6 -87 23 -122 58 -121 169 -188 305 -184 31 0 56 -1 56 -4 0 -3 25
-5 55 -5 30 0 55 3 55 6 0 3 22 3 50 -1 27 -3 55 -3 61 0 6 4 27 4 47 0 21 -3
48 -3 62 0 14 4 34 4 44 0 11 -3 39 -3 63 0 23 4 43 4 43 1 0 -3 25 -6 55 -6
30 0 55 3 55 6 0 3 22 3 50 -1 27 -3 55 -3 61 0 6 4 27 4 47 0 21 -3 48 -3 62
0 14 4 34 4 44 0 11 -3 39 -3 63 0 23 4 43 4 43 1 0 -3 25 -6 55 -6 30 0 55 3
55 6 0 3 22 3 50 -1 27 -3 55 -3 61 0 6 4 27 4 47 0 21 -3 48 -3 62 0 14 4 34
4 44 0 11 -3 39 -3 63 0 23 4 43 4 43 1 0 -3 25 -6 55 -6 30 0 55 3 55 6 0 3
22 3 50 -1 27 -3 55 -3 61 0 6 4 27 4 47 0 21 -3 48 -3 62 0 14 4 34 4 44 0
11 -3 39 -3 63 0 23 4 43 4 43 1 0 -3 25 -6 55 -6 30 0 55 3 55 6 0 3 22 3 50
-1 27 -3 55 -3 61 0 6 4 27 4 47 0 21 -3 48 -3 62 0 14 4 34 4 44 0 11 -3 39
-3 63 0 23 4 43 4 43 1 0 -3 25 -6 55 -6 30 0 55 3 55 6 0 3 20 3 43 -1 24 -3
52 -4 62 0 9 3 38 4 64 0 25 -3 62 -3 81 0 19 4 42 3 50 -1 8 -4 49 4 90 17
90 28 153 81 196 164 26 48 29 65 28 140 0 100 -23 157 -88 224 -69 69 -167
102 -286 96 -19 -1 -42 -1 -50 -1 -48 2 -103 0 -110 -4 -5 -3 -11 -2 -14 3 -3
4 -29 6 -58 2 -30 -3 -65 -3 -79 0 -13 4 -41 3 -61 0 -20 -4 -41 -4 -47 0 -6
3 -34 3 -61 0 -28 -4 -50 -4 -50 -1 0 3 -25 6 -55 6 -30 0 -55 -4 -55 -8 0 -5
-4 -6 -9 -3 -7 5 -51 7 -111 5 -8 0 -64 0 -125 0 -60 0 -117 0 -125 0 -8 0
-44 0 -80 0 -36 1 -72 1 -80 0 -8 0 -44 0 -80 0 -36 1 -72 1 -80 0 -8 0 -44 0
-80 1 -82 1 -201 0 -260 -1 -25 0 -51 0 -57 0 -7 0 -60 0 -118 0 -58 0 -111 0
-117 0 -7 0 -33 0 -58 0 -25 0 -54 1 -65 1 -11 0 -39 0 -61 0 -23 1 -46 0 -50
-1 -5 -1 -12 -1 -16 0 -8 2 -216 3 -220 1 -10 -4 -138 -4 -138 0 0 3 -25 5
-55 5 -30 0 -55 -3 -55 -6 0 -3 -23 -3 -50 1 -28 4 -51 6 -53 4z"/>
</g>
</svg>
